<?xml version="1.0" encoding="UTF-8"?>
<svg xmlns="http://www.w3.org/2000/svg" version="1.1" viewBox="0 0 900 900">
  <!-- Generator: Adobe Illustrator 28.7.0, SVG Export Plug-In . SVG Version: 1.2.0 Build 136)  -->
  <g>
    <g id="Layer_1">
      <g>
        <path d="M121.42,326.12c-1.79,6.25-3.41,12.33-4.84,18.12-1.79,7.29-3.45,13.92-4.94,19.86-1.47,5.82-2.51,10.51-3.09,13.93-1.19,6.07-5.16,9.9-11.5,11.15-5.46,1.08-11.33.63-17.38-1.34-5.96-1.94-11.38-5.32-16.13-10.04-4.97-4.95-7.5-11.18-7.5-18.52,0-5.97,1.5-15.4,4.57-28.84,2.99-13.11,7.32-28.65,12.86-46.21,5.5-17.43,12.16-36.62,19.81-57.05,6.58-17.56,13.94-35.23,21.94-52.65,2.62-5.71,8.03-9.64,14.27-10.36,14.12-1.64,26.38-1.24,36.76,1.21,6.25,1.47,9.61,8.28,6.99,14.14-6.69,14.96-12.87,29.89-18.39,44.41-4.46,11.77-8.75,23.41-12.78,34.73-.4,1.11.74,2.15,1.82,1.66,5.38-2.48,10.7-5.4,15.9-8.74,8.52-5.47,16.28-12.01,23.06-19.43,6.76-7.4,12.31-15.76,16.48-24.84,4.12-8.98,6.22-18.76,6.22-29.05,0-13.24-3.66-23.01-10.89-29.05-7.31-6.11-17.62-9.2-30.62-9.2-13.85,0-26.52,3.29-37.65,9.77-11.41,6.64-21.28,14.82-29.34,24.31-8.11,9.54-14.5,19.74-18.99,30.31-4.45,10.49-6.71,19.68-6.71,27.32,0,5.48-2.89,9.44-8.14,11.14-4.6,1.5-9.67,1.28-14.88-.66-5.01-1.87-9.65-5.55-13.8-10.94-4.18-5.42-6.29-12.76-6.29-21.81,0-7.9,2.99-17.21,9.15-28.46,6-10.96,14.87-21.63,26.35-31.72,11.47-10.07,25.94-18.81,43.03-25.97,17.2-7.2,37.07-10.85,59.07-10.85,12.53,0,25.09,1.47,37.33,4.36,12.35,2.93,23.53,7.37,33.25,13.22,9.84,5.92,17.92,13.35,24.01,22.09,6.2,8.89,9.35,19.32,9.35,31,0,12.58-2.76,24.37-8.21,35.05-5.4,10.58-12.83,20.24-22.08,28.72-9.16,8.41-20.02,15.83-32.27,22.05-10.11,5.13-20.86,9.5-32.01,13.02-.71.22-.96.59-.93,1.33.24,5.56.64,11.05,1.19,16.35.63,6.07,1.47,12,2.49,17.62,1,5.52,2.21,10.9,3.58,15.99,1.07,3.94,2.25,7.78,3.53,11.41.81,2.32,1.67,4.59,2.54,6.73,1.74,4.3,3.67,8.4,5.72,12.22,2.01,3.74,4.18,7.29,6.47,10.55,2.22,3.18,4.61,6.17,7.11,8.9,2.42,2.65,4.99,5.1,7.63,7.27,2.57,2.12,5.28,4.03,8.06,5.69,2.7,1.61,5.53,3.01,8.41,4.17,2.84,1.14,5.79,2.05,8.75,2.72,2.96.66,6.02,1.1,9.11,1.3,3.09.19,6.3.15,9.5-.14,3.25-.29,6.58-.83,9.9-1.6,3.38-.79,6.84-1.85,10.27-3.15,3.52-1.33,7.08-2.93,10.58-4.77,1.34-.7,2.7-1.44,4.04-2.22,4.38-2.53,9.96-1.32,12.91,2.79,2.95,4.11,2.29,9.79-1.52,13.12-1.87,1.63-3.74,3.23-5.6,4.76-4.5,3.69-9.02,7.12-13.43,10.18-4.2,2.91-8.46,5.61-12.66,8.01-2.11,1.21-4.32,2.4-6.56,3.54-4.32,2.19-8.7,4.12-13,5.75-4.3,1.61-8.61,2.95-12.82,3.96-4.2,1.02-8.43,1.75-12.57,2.18-2.94.3-5.9.45-8.77.45-1.16,0-2.33-.02-3.49-.07-3.99-.17-7.97-.65-11.83-1.41-1.91-.37-3.83-.83-5.71-1.36-1.82-.5-3.68-1.1-5.55-1.78-3.59-1.31-7.14-2.92-10.54-4.79-3.34-1.83-6.62-3.95-9.74-6.3-2.51-1.9-4.98-3.98-7.33-6.2-2.83-2.67-5.57-5.61-8.18-8.76-2.56-3.1-5.02-6.46-7.31-9.98-2.29-3.52-4.46-7.26-6.45-11.13-2-3.86-3.88-7.97-5.6-12.21-1.7-4.19-3.29-8.64-4.72-13.24-1.41-4.52-2.71-9.31-3.85-14.23-1.14-4.92-2.12-10.02-2.94-15.18-.73-4.55-1.35-9.28-1.84-14.07-.15-1.46-2.21-1.64-2.61-.23"/>
        <path d="M872.65,142.13c0,20.65-16.75,37.4-37.4,37.4s-37.4-16.74-37.4-37.4,16.75-37.4,37.4-37.4,37.4,16.74,37.4,37.4"/>
        <path d="M864.3,292.97c-1.82-2.83-5.33-4.66-8.94-4.66s-6.5,1.61-8.44,4.41c-2.22,3.21-4.95,7.02-8.13,11.33-3.49,4.72-7.25,9.25-11.19,13.46-3.91,4.19-7.72,7.83-11.33,10.82-3.73,3.1-6.15,3.75-7.51,3.75-.96,0-2.74,0-3.14-4.71-.42-4.93.31-11.34,2.17-19.05,1.9-7.92,4.66-16.72,8.19-26.15,3.6-9.59,7.21-18.75,10.73-27.23,3.66-8.81,6.81-16.13,9.61-22.39,2.8-6.23,4.55-10.28,5.22-12.05,2.24-5.13,1.42-10.19-2.36-14.63-3.47-4.07-8.12-6.93-13.81-8.48-5.56-1.52-11.62-1.61-17.93-.26-6.76,1.45-12.12,5.36-15.93,11.62-3.36,5.5-7.73,14.13-12.99,25.66-5.28,11.56-10.38,24.39-15.15,38.14-2.9,8.34-5.58,16.82-8,25.35-4.03,14.2-12.32,26.81-23.74,36.15-4.09,3.34-8.4,6.49-12.87,9.42-1.98,1.3-3.97,2.5-5.97,3.6-.63.35-1.29-.42-.86-.99,3.45-4.55,6.85-9.46,10.16-14.71,6.83-10.81,13.05-23.76,18.49-38.48,5.75-15.59,9.36-29.8,10.73-42.26,1.37-12.61.9-23.61-1.43-32.7-2.41-9.39-6.61-16.77-12.51-21.95-6.1-5.35-13.65-8.06-22.42-8.06-10.34,0-19.85,2.74-28.25,8.13-5.74,3.69-11.06,7.81-15.88,12.3-.4.37-.73.33-1.02-.13-1.07-1.71-2.51-3.31-4.33-4.82-4.08-3.37-8.98-5.62-14.59-6.71-5.63-1.07-11.34-.68-16.92,1.15-5.96,1.96-10.41,6-13.22,12.03-5.39,11.61-11.08,25.17-16.92,40.29-5.82,15.1-11.5,30.88-16.89,46.91-.59,1.78-1.19,3.56-1.78,5.33-4.54,13.67-13.08,25.66-24.51,34.44-3.01,2.31-6.13,4.52-9.33,6.62-1.98,1.3-3.97,2.5-5.98,3.6-.63.35-1.29-.41-.85-.99,3.45-4.54,6.85-9.46,10.16-14.71,6.83-10.8,13.05-23.75,18.5-38.48,5.75-15.59,9.36-29.81,10.73-42.26,1.38-12.61.9-23.62-1.43-32.7-2.4-9.38-6.61-16.77-12.51-21.95-6.11-5.35-13.65-8.06-22.42-8.06-10.35,0-19.86,2.74-28.26,8.13-5.75,3.69-11.07,7.81-15.88,12.3-.4.37-.73.33-1.02-.13-1.07-1.7-2.52-3.31-4.33-4.81-4.07-3.37-8.98-5.62-14.59-6.71-5.63-1.07-11.35-.68-16.91,1.15-5.96,1.95-10.4,6-13.23,12.04-5.39,11.63-11.09,25.19-16.92,40.29-5.47,14.19-10.79,28.91-15.84,43.81-3.81,11.25-9.51,20.28-18.02,28.56-2.2,2.14-4.34,4.07-6.41,5.79-3.73,3.1-6.14,3.75-7.51,3.75-.96,0-2.74,0-3.14-4.71-.42-4.92.31-11.32,2.17-19.05,1.9-7.92,4.65-16.72,8.19-26.15,3.56-9.49,7.17-18.66,10.73-27.23,3.6-8.64,6.83-16.18,9.61-22.39,2.85-6.35,4.55-10.3,5.21-12.06,2.25-5.13,1.43-10.19-2.36-14.63-3.48-4.08-8.22-6.94-14.07-8.49-5.72-1.51-11.76-1.6-17.92-.25-6.6,1.45-11.88,5.36-15.69,11.6-.76,1.24-1.56,2.6-2.4,4.11-.3.54-1.11.42-1.24-.19-.72-3.41-1.89-6.63-3.49-9.63-2.39-4.46-5.94-8.13-10.53-10.89-4.67-2.8-10.59-4.22-17.6-4.22-16.54,0-33.32,7.63-49.86,22.69-16.24,14.79-29.7,38.37-40.02,70.12-4.84,15.31-7.68,29.46-8.44,42.06-.77,12.75.26,23.76,3.06,32.71,2.88,9.23,7.47,16.51,13.66,21.65,6.38,5.31,14.05,8,22.8,8,6.47,0,12.64-1.12,18.34-3.32,5.53-2.14,10.65-4.88,15.23-8.16,3.52-2.52,6.81-5.37,9.79-8.5,2.12-2.23,5.87-1.33,6.74,1.62.98,3.31,2.34,6.26,4.09,8.82,4.32,6.33,11.16,9.54,20.32,9.54,10.15,0,20.41-3.81,30.49-11.32,4.7-3.5,9.29-7.31,13.73-11.41,1-.92,2.58.06,2.18,1.37-2.6,8.64-4.93,16.64-7.03,24.14-3.54,12.62-6.42,23.49-8.56,32.31-2.86,11.83-3.23,15.04-3.23,16.53,0,7.25,2.25,13.43,6.7,18.38,4.29,4.75,9.27,8.17,14.81,10.14,3.64,1.29,7.2,1.95,10.56,1.95,1.86,0,3.7-.2,5.46-.6,3.97-.9,9-3.54,10.47-11.05l.02-.15c.58-3.95,1.7-9.3,3.31-15.91,1.67-6.86,3.71-14.66,6.05-23.2,2.31-8.49,4.95-17.95,8.06-28.92,1.44-5.07,2.98-10.38,4.63-15.9.34-1.12,1.85-1.3,2.44-.29.73,1.26,1.54,2.49,2.44,3.69,5.05,6.77,13.11,10.21,23.96,10.23,2.18.1,4.36.15,6.5.15h0c15.95,0,30.92-2.74,44.51-8.13,12.99-5.15,24.88-11.45,35.48-18.73,1.04-.72,2.4.28,2.03,1.49-3.04,10.02-5.79,19.4-8.2,28.02-3.56,12.71-6.44,23.58-8.56,32.31-2.86,11.85-3.23,15.06-3.23,16.53,0,7.25,2.25,13.43,6.7,18.38,4.29,4.76,9.27,8.17,14.81,10.14,3.64,1.29,7.19,1.95,10.56,1.95,1.86,0,3.7-.2,5.47-.6,3.97-.9,9-3.54,10.47-11.05l.03-.15c.58-3.96,1.7-9.32,3.31-15.91,1.67-6.85,3.7-14.66,6.04-23.2,2.32-8.53,4.96-17.99,8.07-28.92,1.44-5.08,2.99-10.39,4.62-15.9.33-1.12,1.85-1.3,2.44-.29.73,1.26,1.54,2.5,2.44,3.7,5.05,6.77,13.11,10.21,23.95,10.23,2.18.1,4.36.15,6.5.15h0c15.94,0,30.92-2.74,44.52-8.13,15.21-6.03,28.96-13.63,40.87-22.58,2.02-1.52,4-3.06,5.92-4.62.88-.71,2.19-.07,2.17,1.06,0,.51-.01,1.02-.01,1.52,0,9.52,2,17.28,5.95,23.07,4.32,6.33,11.16,9.54,20.32,9.54,10.14,0,20.46-3.8,30.69-11.3,9.72-7.12,18.9-15.54,27.29-25.03,8.27-9.35,15.54-18.67,21.61-27.7,6.13-9.14,10.26-15.39,12.62-19.1,1.88-2.97,1.94-6.26.15-9.04M346.83,244.28c-.72,6.67-2.14,14.29-4.19,22.67-2.06,8.34-4.89,17.13-8.4,26.13-3.5,8.95-7.23,17.37-11.09,25.02-3.79,7.48-7.61,13.85-11.38,18.96-3.67,4.96-7.12,8.66-10.25,11-2.32,1.73-3.6,1.92-4.05,1.92-.2,0-.37-.04-.56-.12-.43-.19-1.87-1.16-2.63-5.73-.71-4.17-.77-9.56-.2-16.01.58-6.56,1.92-14.1,3.96-22.4,2.04-8.31,4.87-17.1,8.4-26.12,3.55-9.07,7.29-17.49,11.1-25.03,3.77-7.47,7.6-13.92,11.39-19.18,3.65-5.07,7.09-8.83,10.23-11.17,2.32-1.73,3.61-1.92,4.05-1.92.21,0,.38.04.54.11.44.2,1.96,1.22,2.89,5.84.83,4.1.89,9.51.18,16.05M527.99,244.68c-1.17,6.58-3.03,14.15-5.52,22.52-2.52,8.4-5.73,17.21-9.5,26.11-4.13,9.04-8.39,17.47-12.66,25.06-4.25,7.52-8.46,13.99-12.53,19.23-3.95,5.1-7.62,8.87-10.91,11.22-2.47,1.77-3.83,1.96-4.3,1.96-.22,0-.4-.03-.59-.12-.41-.18-1.79-1.13-2.39-5.63-.56-4.09-.26-9.5.88-16.06,1.17-6.72,3.03-14.37,5.53-22.72,2.48-8.32,5.69-17.13,9.53-26.19,3.82-9.01,7.98-17.4,12.37-24.93,4.42-7.56,8.7-13.96,12.74-19.03,3.96-4.97,7.64-8.69,10.94-11.05,2.48-1.77,3.85-1.96,4.32-1.96.22,0,.41.04.57.11.41.18,1.79,1.14,2.4,5.63.55,4.1.26,9.44-.88,15.84M695.44,244.68c-1.17,6.57-3.03,14.15-5.53,22.52-2.51,8.35-5.71,17.17-9.5,26.11-4.12,9.02-8.38,17.45-12.67,25.06-4.24,7.52-8.45,13.99-12.52,19.23-3.96,5.1-7.63,8.88-10.91,11.22-2.47,1.77-3.84,1.96-4.31,1.96-.22,0-.4-.03-.59-.12-.41-.18-1.79-1.13-2.39-5.62-.56-4.11-.26-9.51.88-16.06,1.17-6.75,3.03-14.39,5.52-22.72,2.48-8.31,5.68-17.12,9.53-26.19,3.81-8.99,7.97-17.38,12.38-24.93,4.4-7.55,8.69-13.95,12.74-19.03,3.94-4.96,7.62-8.67,10.93-11.05,2.48-1.77,3.85-1.96,4.32-1.96.22,0,.4.04.57.11.41.18,1.79,1.14,2.4,5.63.55,4.12.26,9.45-.87,15.84"/>
        <path d="M864.52,587.51c-44.73,39.16-84.41,41.62-132.06,6.54-21.91-16.11-41.53-35.31-63.5-51.33-17-12.4-34.96-24.71-54.36-32.37-33.56-13.28-67.61-8.77-98.26,9.86-20.82,12.65-39.79,28.42-59.1,43.45-2.71,2.08-4.74,3.23-6.8,3.14-2.06.09-4.08-1.06-6.8-3.14-19.31-15.03-38.28-30.79-59.1-43.45-30.62-18.62-64.7-23.14-98.27-9.86-19.4,7.66-37.36,19.97-54.36,32.37-21.97,16.02-41.59,35.22-63.5,51.33-47.65,35.08-87.33,32.62-132.06-6.54-3.69-3.23-7.37-6.46-11.06-9.66,6.66,36.85,21.02,69.9,42.22,99.89,27.05,38.28,62.53,65.7,107.06,80.75,104.09,35.19,235.58-13.86,275.86-106.44,40.28,92.58,171.77,141.63,275.86,106.44,44.53-15.05,80.01-42.48,107.06-80.75,21.19-29.99,35.56-63.04,42.22-99.89-3.69,3.2-7.37,6.43-11.05,9.66"/>
      </g>
    </g>
  </g>
</svg>