<?xml version="1.0" encoding="UTF-8"?>
<svg xmlns="http://www.w3.org/2000/svg" version="1.1" viewBox="0 0 99 36">
  <defs>
    <style>
      .cls-1 {
        fill-rule: evenodd;
      }
    </style>
  </defs>
  <!-- Generator: Adobe Illustrator 28.7.0, SVG Export Plug-In . SVG Version: 1.2.0 Build 136)  -->
  <g>
    <g id="Layer_1">
      <path class="cls-1" d="M6.2,13.5v.9s3.7,0,3.7,0c.7,0,1.4.6,1.4,1.4v2.5c0,.8-.6,1.4-1.4,1.4h-3.7v8.3c0,.8-.6,1.4-1.4,1.4H1.4c-.7,0-1.4-.6-1.4-1.4v-14.5h0C0,6.6,4.7.9,10.6,0c.8-.1,1.5.5,1.5,1.4v3.7c0,.6-.5,1.2-1.1,1.3-2.8.6-4.9,3.6-4.9,7.1ZM86.4,17.8h0v10.2c0,.8.6,1.4,1.4,1.4h3.6c.8,0,1.4-.6,1.4-1.4l-.2-10.2h0c0-3.2,2.1-5.9,4.8-6.5.7-.1,1.1-.7,1.1-1.3v-3.3c0-.8-.8-1.5-1.6-1.4-5.9.8-10.5,6.1-10.5,12.6ZM77.6,15.4c-.2-2.1-2.1-4.1-4.6-4.1s-4.7,2-5,4.1h9.7ZM82.7,25.2c.6.6.5,1.5,0,2-2.3,2-5.5,3.1-8.6,3.1-7,0-12.3-4.8-12.3-12.1s4.5-12.1,11.4-12.1,11.1,5.4,11.1,11.9,0,.3,0,.5c0,.7-.6,1.3-1.4,1.3h-15c.3,3.3,3,5.5,6.3,5.5s3.8-.9,5-1.9c.5-.4,1.3-.4,1.8.1l1.7,1.7ZM55.2,6.9l-6,13.4-6-13.4c-.2-.5-.7-.8-1.3-.8h-3.5c-1,0-1.7,1-1.2,1.9l9.5,20.6c.2.5.7.8,1.2.8h2.6c.5,0,1-.3,1.2-.8l9.5-20.6c.4-.9-.2-1.9-1.2-1.9h-3.5c-.5,0-1,.3-1.3.8ZM30.6,15.4c-.2-2.1-2.1-4.1-4.6-4.1s-4.7,2-5,4.1h9.7ZM35.4,24.9c.8.8.7,2-.1,2.7-2.2,1.8-5.3,2.8-8.2,2.8-7,0-12.3-4.8-12.3-12.1s4.5-12.1,11.4-12.1,11.1,5.4,11.1,11.9,0,.3,0,.5c0,.7-.6,1.3-1.4,1.3h-15c.3,3.3,3,5.5,6.3,5.5s3.5-.8,4.7-1.6c.7-.5,1.8-.5,2.4.1l1.1,1.1Z"/>
    </g>
  </g>
</svg>