<?xml version="1.0" encoding="UTF-8"?>
<svg xmlns="http://www.w3.org/2000/svg" version="1.1" viewBox="0 0 799.6 799.6">
  <defs>
    <style>
      .cls-1 {
        fill: #fff;
      }
    </style>
  </defs>
  <!-- Generator: Adobe Illustrator 28.7.0, SVG Export Plug-In . SVG Version: 1.2.0 Build 136)  -->
  <g>
    <g id="Layer_1">
      <path class="cls-1" d="M792.1,399.8c0,216.7-175.6,392.3-392.3,392.3h0c-216.7,0-392.3-175.6-392.3-392.3h0C7.5,183.1,183.1,7.5,399.8,7.5h0c216.7,0,392.3,175.6,392.3,392.3h0Z"/>
      <path d="M399.8,0C179.1,0,0,179.1,0,399.8s179.1,399.8,399.8,399.8,399.8-179.1,399.8-399.8S620.5,0,399.8,0ZM399.8,15c212.5,0,384.7,172.1,384.8,384.6v.2c.1,212.5-172,384.8-384.5,384.9-.1,0-.2,0-.3,0-212.5,0-384.7-172.1-384.8-384.6,0,0,0-.2,0-.3C15,187.3,187.1,15.1,399.6,15c0,0,.1,0,.2,0h0Z"/>
      <path d="M593.4,321.7c-45.6,0-69.5,19.3-69.5,48.9s5.9,23,15.7,29.4c17.3,11.2,31.7,12.9,51.6,17.7,11.4,2.8,23.7,6,23.7,13.3s-6.1,10.5-22.3,10.5c-32.1,0-38.4-16.9-38.4-16.9l-41,15.1c8.7,27.6,51.2,37.1,79.4,37.1s47.5-6.4,58.6-17c12.2-11.6,13.4-22.9,13.4-33.6s-3.7-22-21.8-32.5c-13.2-7.6-39.9-12.3-51.6-14.7-4.4-1-18.5-3-18.5-11.3s8.8-9.6,20.6-9.6c23.4,0,27.1,15.8,27.1,15.8l41.2-15.2c-6.4-28.9-40.3-37-68.3-37h0ZM729.5,322.5l-49.4,18.1v130.4h49.4v-148.5ZM68.4,325.2v145.8h49.4v-27.2c18.9-6.2,37.5-13.2,55.7-21.1,34.5-15.7,36-35.4,36-51.8s-15.1-45.7-57.3-45.7h-83.9ZM223.7,325.2v145.8h128.5v-35.9h-79.1v-19.3h62.1v-35.9h-62.1v-18.9h77.7v-35.8h-127.1ZM373.7,325.2v145.8h49.4v-27.2c18.9-6.2,37.5-13.2,55.7-21.1,34.5-15.7,36-35.4,36-51.8s-15.1-45.7-57.3-45.7h-83.9ZM117.8,361h24.7c8.3,0,15.2,6.8,15.2,15.3s-3.9,15.6-18.8,21.8l-21.2,8.4v-45.6ZM423.1,361h24.7c8.3,0,15.2,6.8,15.2,15.3s-3.9,15.6-18.8,21.8l-21.2,8.4v-45.6Z"/>
      <path d="M399.8,41.7c-142.8.1-271.8,85-328.4,216.1,1.3.5,71.1,25.2,141.7,25.2,110.2,0,242.3-45,384.6-45s125.4,17.8,130.8,19.7c-56.7-131.1-185.8-216-328.7-216h0Z"/>
      <path d="M400,757.9c142.8,0,271.8-85,328.5-216-1.3-.5-71.2-25.2-141.7-25.2-110.2,0-242.3,45.1-384.6,45.1s-125.4-17.8-130.8-19.7c56.7,131.1,185.9,215.9,328.7,215.9h0Z"/>
    </g>
  </g>
</svg>